<svg xmlns="http://www.w3.org/2000/svg" xmlns:xlink="http://www.w3.org/1999/xlink" version="1.1" width="500" height="500" viewBox="242 10 500 500" xml:space="preserve" style="max-width: 100%;display: block;position: absolute;/* inset: 0px; */margin: auto; width: 100%; height: 100%;">
<desc>Created with Fabric.js 3.6.3</desc>
<defs>
</defs>
<rect x="242" y="10" width="500" height="500" fill="#ffffff"></rect>
<g transform="matrix(1 0 0 1 492.15999999999997 204.89221226137408)" style="">
		<text xml:space="preserve" font-family="'PlayfairDisplay-Regular', 'Heebo-Regular', 'Roboto-Regular'" font-size="31.800000000000026" font-style="normal" font-weight="normal" style="stroke: none; stroke-width: 1; stroke-dasharray: none; stroke-linecap: butt; stroke-dashoffset: 0; stroke-linejoin: miter; stroke-miterlimit: 4; fill: rgb(0,0,0); fill-rule: nonzero; opacity: 1; white-space: pre;"><tspan x="-142.25997070312513" y="9.98965200000001" style="fill: rgb(0,0,0); ">А</tspan><tspan x="-120.63969726562512" y="9.98965200000001" style="fill: rgb(0,0,0); ">В</tspan><tspan x="-99.45418945312511" y="9.98965200000001" style="fill: rgb(0,0,0); ">Т</tspan><tspan x="-78.11340820312509" y="9.98965200000001" style="fill: rgb(0,0,0); ">О</tspan><tspan x="-52.95290039062507" y="9.98965200000001" style="fill: rgb(0,0,0); white-space: pre; "> </tspan><tspan x="-43.44395507812506" y="9.98965200000001" style="fill: rgb(0,0,0); ">К</tspan><tspan x="-21.04731445312504" y="9.98965200000001" style="fill: rgb(0,0,0); ">О</tspan><tspan x="3.8647558593749807" y="9.98965200000001" style="fill: rgb(0,0,0); ">Н</tspan><tspan x="29.273701171875" y="9.98965200000001" style="fill: rgb(0,0,0); ">С</tspan><tspan x="52.74172851562502" y="9.98965200000001" style="fill: rgb(0,0,0); ">П</tspan><tspan x="78.39911132812504" y="9.98965200000001" style="fill: rgb(0,0,0); ">Е</tspan><tspan x="99.35170898437507" y="9.98965200000001" style="fill: rgb(0,0,0); ">К</tspan><tspan x="122.50918945312509" y="9.98965200000001" style="fill: rgb(0,0,0); ">Т</tspan></text>
</g>
<g transform="matrix(1.4432453507190774 0 0 1.4432453507190777 491.3858262675715 286.669432664005)">
<path style="stroke: none; stroke-width: 0; stroke-dasharray: none; stroke-linecap: butt; stroke-dashoffset: 0; stroke-linejoin: miter; stroke-miterlimit: 4; fill: rgb(0,0,0); fill-rule: nonzero; opacity: 1;" transform=" translate(-49.50003298083461, -53.50008233094187)" d="M 72 86 H 25 c -0.507 0 -0.933 -0.379 -0.993 -0.882 l -7 -59 c -0.062 -0.519 0.286 -0.996 0.797 -1.099 l 20 -4 c 0.322 -0.063 0.656 0.034 0.892 0.262 c 0.236 0.229 0.345 0.559 0.291 0.883 L 37.114 33.4 l 8.292 3.686 c 0.25 0.111 0.443 0.319 0.535 0.576 s 0.075 0.541 -0.047 0.785 l -4.553 9.105 l 7.105 3.553 c 0.317 0.159 0.527 0.474 0.55 0.828 l 0.452 6.768 l 1.566 -8.875 c 0.044 -0.25 0.182 -0.474 0.385 -0.626 l 7.013 -5.26 l -7.071 -6.188 c -0.209 -0.183 -0.332 -0.443 -0.341 -0.72 c -0.01 -0.276 0.097 -0.545 0.292 -0.74 l 7.646 -7.646 l -0.93 -6.505 c -0.044 -0.311 0.06 -0.624 0.281 -0.847 c 0.221 -0.223 0.536 -0.324 0.844 -0.286 l 22 3 C 81.4 24.045 81.64 24.187 81.8 24.4 c 0.161 0.214 0.229 0.483 0.189 0.748 l -9 60 C 72.915 85.638 72.495 86 72 86 z M 25.888 84 h 45.25 l 8.722 -58.146 L 60.178 23.17 l 0.812 5.688 c 0.044 0.312 -0.061 0.626 -0.283 0.849 l -7.244 7.244 l 7.195 6.296 c 0.228 0.199 0.353 0.489 0.341 0.791 c -0.011 0.301 -0.158 0.581 -0.399 0.762 l -7.684 5.763 l -2.931 16.611 c -0.088 0.498 -0.522 0.861 -1.039 0.825 c -0.505 -0.027 -0.91 -0.428 -0.943 -0.933 l -0.962 -14.428 l -7.488 -3.744 c -0.494 -0.247 -0.694 -0.848 -0.447 -1.342 l 4.532 -9.063 l -8.044 -3.575 c -0.417 -0.186 -0.655 -0.629 -0.58 -1.078 l 1.762 -10.571 L 19.102 26.8 L 25.888 84 z" stroke-linecap="round"></path>
</g>
<g transform="matrix(1.986068770055549 0 0 1.986068770055549 407.24675324675326 299.3673339978094)">
<linearGradient id="SVGID_2" gradientUnits="userSpaceOnUse" gradientTransform="matrix(1 0 0 1 -7.7 -7.35)" x1="0" y1="0" x2="15.4" y2="14.7">
<stop offset="0%" style="stop-color:rgb(251,176,64);stop-opacity: 1"></stop>
<stop offset="100%" style="stop-color:rgb(249,237,50);stop-opacity: 1"></stop>
</linearGradient>
<polygon style="stroke: none; stroke-width: 1; stroke-dasharray: none; stroke-linecap: butt; stroke-dashoffset: 0; stroke-linejoin: miter; stroke-miterlimit: 4; fill: url(#SVGID_2); fill-rule: nonzero; opacity: 1;" points="4.8,7.25 0.09999999999999964,4.85 -4.7,7.35 -3.8000000000000003,2.0500000000000007 -7.7,-1.6499999999999995 -2.4000000000000004,-2.55 0,-7.35 2.3999999999999995,-2.55 7.7,-1.8499999999999996 3.8999999999999995,1.950000000000001 "></polygon>
</g>
<g transform="matrix(1.986068770055549 0 0 1.986068770055549 575.2467532467532 299.3673339978094)">
<linearGradient id="SVGID_3" gradientUnits="userSpaceOnUse" gradientTransform="matrix(1 0 0 1 -7.7 -7.35)" x1="0" y1="0" x2="15.4" y2="14.7">
<stop offset="0%" style="stop-color:rgb(251,176,64);stop-opacity: 1"></stop>
<stop offset="100%" style="stop-color:rgb(249,237,50);stop-opacity: 1"></stop>
</linearGradient>
<polygon style="stroke: none; stroke-width: 1; stroke-dasharray: none; stroke-linecap: butt; stroke-dashoffset: 0; stroke-linejoin: miter; stroke-miterlimit: 4; fill: url(#SVGID_3); fill-rule: nonzero; opacity: 1;" points="4.8,7.25 0.09999999999999964,4.85 -4.7,7.35 -3.8000000000000003,2.0500000000000007 -7.7,-1.6499999999999995 -2.4000000000000004,-2.55 0,-7.35 2.3999999999999995,-2.55 7.7,-1.8499999999999996 3.8999999999999995,1.950000000000001 "></polygon>
</g>
</svg>